<svg id="Layer_1" data-name="Layer 1" xmlns="http://www.w3.org/2000/svg" xmlns:xlink="http://www.w3.org/1999/xlink" viewBox="0 0 488.14 569.44"><defs><style>.cls-1,.cls-4,.cls-6{fill:#0072bc;}.cls-1,.cls-2,.cls-3{clip-rule:evenodd;}.cls-18,.cls-2,.cls-20{fill:#ed1e24;}.cls-21,.cls-23,.cls-3{fill:#feda00;}.cls-18,.cls-21,.cls-4{fill-rule:evenodd;}.cls-5{clip-path:url(#clip-path);}.cls-7{clip-path:url(#clip-path-2);}.cls-8{clip-path:url(#clip-path-3);}.cls-9{clip-path:url(#clip-path-4);}.cls-10{clip-path:url(#clip-path-5);}.cls-11{clip-path:url(#clip-path-6);}.cls-12{clip-path:url(#clip-path-7);}.cls-13{clip-path:url(#clip-path-8);}.cls-14{clip-path:url(#clip-path-9);}.cls-15{clip-path:url(#clip-path-10);}.cls-16{clip-path:url(#clip-path-11);}.cls-17{clip-path:url(#clip-path-12);}.cls-19{clip-path:url(#clip-path-13);}.cls-22{clip-path:url(#clip-path-14);}.cls-24{clip-path:url(#clip-path-15);}</style><clipPath id="clip-path" transform="translate(-53.64 -96.74)"><path class="cls-1" d="M132.29,373.27l-4.18-1.21,1.28-4.73-9.33-2.66a22.82,22.82,0,0,1,.36,2.48,11.94,11.94,0,0,1-.06,2.12l-4.3-1.21a11.73,11.73,0,0,0-.3-3.63,6.85,6.85,0,0,0-1.34-2.73l1.09-4,15.33,4.36,1.27-4.6,4.18,1.21Zm-1.75-27.63a3.92,3.92,0,0,1,.91,1.94,6.44,6.44,0,0,1-.12,2.37,5.8,5.8,0,0,1-7.58,4.06,7.42,7.42,0,0,1-2.3-1.1,5.82,5.82,0,0,1-1.7-1.93,6.85,6.85,0,0,1-1-2.85,8.13,8.13,0,0,1,4.37-8.3c2.12-1,4.66-1,7.69-.12a12.3,12.3,0,0,1,6.91,4.24,7.26,7.26,0,0,1,1.21,6.54,6.38,6.38,0,0,1-6.85,5.21l.73-5a3.14,3.14,0,0,0,1.39-.3,1.8,1.8,0,0,0,.67-1,2,2,0,0,0-.73-2.06A11.39,11.39,0,0,0,130.54,345.64Zm-7.51.25a1.88,1.88,0,0,0,.3,1.63,2.86,2.86,0,0,0,1.51,1.09,2.67,2.67,0,0,0,1.82-.12,1.68,1.68,0,0,0,1-1.27,2.19,2.19,0,0,0-.18-1.76,2.52,2.52,0,0,0-1.58-1.09,2.37,2.37,0,0,0-1.81.18A2.18,2.18,0,0,0,123,345.89Zm12.11-17a3.8,3.8,0,0,1,.91,1.94,5.32,5.32,0,0,1-.12,2.36,5.75,5.75,0,0,1-2.85,3.7,6,6,0,0,1-4.72.42,8.91,8.91,0,0,1-2.31-1.15,5.72,5.72,0,0,1-1.69-1.94,6.5,6.5,0,0,1-1-2.84,7.69,7.69,0,0,1,.18-3.09,7.56,7.56,0,0,1,4.18-5.21c2.12-1,4.67-1,7.7-.13s5.45,2.31,6.9,4.31a7.27,7.27,0,0,1,1.27,6.48,7,7,0,0,1-2.48,3.94,6.61,6.61,0,0,1-4.42,1.27l.72-5a3.22,3.22,0,0,0,1.4-.3,1.88,1.88,0,0,0,.66-1,2,2,0,0,0-.72-2.06A11.25,11.25,0,0,0,135.14,328.86Zm-7.51.24a2,2,0,0,0,.3,1.64,3,3,0,0,0,1.52,1.09,2.68,2.68,0,0,0,1.82-.12,1.7,1.7,0,0,0,1-1.27,2.11,2.11,0,0,0-.18-1.76,2.31,2.31,0,0,0-1.57-1.09,2.4,2.4,0,0,0-1.82.18A2.19,2.19,0,0,0,127.63,329.1Zm18.54-6.18-4.24-1.21,1.27-4.66-9.33-2.67a19.16,19.16,0,0,1,.36,2.49,8.3,8.3,0,0,1-.06,2.12l-4.3-1.28a11.81,11.81,0,0,0-.24-3.63,7.36,7.36,0,0,0-1.39-2.73l1.09-4,15.32,4.37,1.28-4.61,4.24,1.21Z"/></clipPath><clipPath id="clip-path-2" transform="translate(-53.64 -96.74)"><path class="cls-1" d="M474.11,321.85c.12.84.79,1.33,2,1.45a19,19,0,0,0,4.67-.24,17,17,0,0,0,5.15-1.46,1.79,1.79,0,0,0,1-1.81c-.13-.85-.73-1.34-1.88-1.46a18,18,0,0,0-4.55.24,19.21,19.21,0,0,0-5.21,1.34,1.77,1.77,0,0,0-1.15,1.94m-4.48.6a7,7,0,0,1,2.06-6.48,13,13,0,0,1,7.51-3.51c3.33-.49,6.12-.19,8.3,1a7.64,7.64,0,0,1,3.88,5.63,7.09,7.09,0,0,1-2.12,6.6,13.74,13.74,0,0,1-7.57,3.4,12.37,12.37,0,0,1-8.18-1A7.5,7.5,0,0,1,469.63,322.45Z"/></clipPath><clipPath id="clip-path-3" transform="translate(-53.64 -96.74)"><path class="cls-1" d="M473.53,311.4l-5.21.61L465.71,296l4.85-.73,3.09,3.15a34.63,34.63,0,0,0,2.79,2.55,14.27,14.27,0,0,0,3.21,2.36,3.27,3.27,0,0,0,2.12.36,2.07,2.07,0,0,0,1.88-2.42c-.25-1.51-1.64-2.24-4.06-2l.18-5.51a8.15,8.15,0,0,1,8.66,7.21,8.52,8.52,0,0,1-.91,5.88,6.1,6.1,0,0,1-4.54,3,6.73,6.73,0,0,1-4.06-.54c-1.39-.61-3.57-2.61-6.72-6Z"/></clipPath><clipPath id="clip-path-4" transform="translate(-53.64 -96.74)"><path class="cls-1" d="M474.2,350.77l4.31-.63.8,4.83,9.59-1.44a22.85,22.85,0,0,1-1.36-2.11,12.46,12.46,0,0,1-.82-1.95l4.42-.68a11.26,11.26,0,0,0,1.78,3.18,6.76,6.76,0,0,0,2.34,1.93l.66,4.1-15.76,2.37.75,4.72-4.31.63Z"/></clipPath><clipPath id="clip-path-5" transform="translate(-53.64 -96.74)"><path class="cls-1" d="M164.21,297.66,132.1,271.37l12.67-15.27c3.39-4.12,6.72-6.54,10-7.33s6.42.12,9.57,2.66a12.68,12.68,0,0,1,4.31,5.94,10.13,10.13,0,0,1-.13,6.67l18.67,5.81-8.55,10.36-16-5.33-2.73,3.27,12.18,10ZM150.52,263l-3.69,4.42,6.3,5.15,3.75-4.55a5.28,5.28,0,0,0,1.4-3.45,3.57,3.57,0,0,0-1.4-2.91,3.65,3.65,0,0,0-3.15-1A6.32,6.32,0,0,0,150.52,263Zm39.56,2.78-24.23-33.5L191,214.6l5.7,7.75L181.24,233.2l3.57,4.9,12.67-8.84,5.27,7.21-12.67,8.9,4.12,5.7,15.57-11,5.7,7.82Zm30-48.1,3-1.46a6,6,0,0,0,3-2.66,3.57,3.57,0,0,0-.06-3.33,3.75,3.75,0,0,0-2.42-2.13,4.93,4.93,0,0,0-3.58.55l-3.69,1.82Zm-.48,26.78-18.72-36.78,15.69-7.63a36.41,36.41,0,0,1,6.3-2.55,14,14,0,0,1,4.79-.54,12.83,12.83,0,0,1,6,2.18,13.9,13.9,0,0,1,4.24,5,12,12,0,0,1,.66,10.24c-1.33,3.39-4,6-7.93,7.93l-6.55,3.21L231,239ZM246.13,188l12.42-2.42,5.63,26.23a5.87,5.87,0,0,0,10.3,2,5.71,5.71,0,0,0,.54-4.48l-5.51-25.87,9.7-1.88,5.81,27c1,4.54.3,8.24-1.94,11.15s-5.93,4.9-11.08,5.93c-5.82,1.1-10.36.79-13.64-1s-5.45-5.08-6.54-9.93Zm12.05-6.54L261.39,170l8.18-1.58-7,12.24Zm35.69,39.62,2.84-40.77,20,1.69a27,27,0,0,1,6.12,1.09,10.57,10.57,0,0,1,3.63,2.37,8.42,8.42,0,0,1,2.36,3.69,11.29,11.29,0,0,1,.67,4.55,9.29,9.29,0,0,1-2.24,5.75,9.08,9.08,0,0,1-5.39,2.79,10.42,10.42,0,0,1,5.69,3.81,9.45,9.45,0,0,1,1.58,6.61c-.24,3.76-1.64,6.42-4.24,8.18s-6.24,2.36-11,1.94Zm12.36-8,6.18.55a4.8,4.8,0,0,0,3.33-.73,3.23,3.23,0,0,0,1.33-2.6,3.7,3.7,0,0,0-1-2.91,5.35,5.35,0,0,0-3.21-1.21l-6.18-.55Zm1.15-16.17,6,.48a4.2,4.2,0,0,0,3-.6,3.08,3.08,0,0,0,1.22-2.43,3.41,3.41,0,0,0-.85-2.6,4.56,4.56,0,0,0-2.91-1.15l-6-.49Zm25.93,27.56,10-39.5,12.3,3.21-7.69,30.36,15.69,4.12-2.36,9.2Zm30.41,9.33,16.78-37.14,11.76,5.4L375.48,239.2ZM415,234a10.58,10.58,0,0,0,2.06-5.51,4.3,4.3,0,0,0-1.82-3.82,5,5,0,0,0-5.57-.24c-1.94,1-4.12,3.33-6.49,6.73-2.18,3.21-3.39,5.87-3.63,7.87a4.79,4.79,0,0,0,2.24,4.85,4.57,4.57,0,0,0,4.06.73,9.64,9.64,0,0,0,4.36-3.27l9.21,7.27c-3.21,3.69-6.91,5.87-11,6.42s-8.05-.55-12.11-3.27c-4.79-3.28-7.52-7.46-8.3-12.48s.72-10.18,4.3-15.39c3.88-5.58,8.24-9,13.21-10.18s9.93-.12,14.84,3.21c4.12,2.85,6.66,6.3,7.51,10.42s-.06,8.42-2.66,12.91Zm-3.64,27.81,38.17-19.44,9.51,9.57L439,289.6l-9.27-9.27,4.12-7.45-7.82-7.94-7.51,4.12ZM434,260.46l4.73,4.79,6.12-10.67Z"/></clipPath><clipPath id="clip-path-6" transform="translate(-53.64 -96.74)"><path class="cls-1" d="M318,413a14.17,14.17,0,0,1-10.12-3,23.48,23.48,0,0,1-5.63-7l3.51-2.36a21.22,21.22,0,0,0,4.85,6.06,11.2,11.2,0,0,0,7.81,2.36Z"/></clipPath><clipPath id="clip-path-7" transform="translate(-53.64 -96.74)"><path class="cls-1" d="M341.06,401.75A30.34,30.34,0,0,1,327.13,399a25.88,25.88,0,0,1-10.12-9l3.39-2.54a22.29,22.29,0,0,0,8.85,7.87,26.07,26.07,0,0,0,12.36,2.43Z"/></clipPath><clipPath id="clip-path-8" transform="translate(-53.64 -96.74)"><path class="cls-1" d="M483.86,426l.06-11.45a6.3,6.3,0,0,0,4.25-1.7,9.55,9.55,0,0,0,2.18-4.78,6.08,6.08,0,0,0-.12-3.33,2.5,2.5,0,0,0-1.76-1.64c-1.58-.3-3,1.15-4.49,4.36a29,29,0,0,1-1.27,2.73c-2.12,4.48-4.36,7.51-6.6,9.15a9.37,9.37,0,0,1-8,1.51,11.86,11.86,0,0,1-8.6-6.6c-1.82-3.58-2.24-7.94-1.27-13a17.57,17.57,0,0,1,4.48-9.15,14.67,14.67,0,0,1,8.54-4.3l1,10.66a6,6,0,0,0-3.51,1.7,7,7,0,0,0-1.76,3.76,4.62,4.62,0,0,0,.3,3,2.48,2.48,0,0,0,1.82,1.57c1.27.3,2.67-1.21,4.06-4.42.42-.85.73-1.52,1-2a14.5,14.5,0,0,1,.61-1.33c1.87-4.06,3.69-6.79,5.45-8.3a10.17,10.17,0,0,1,4.24-2.06,12.27,12.27,0,0,1,5,.06,12.48,12.48,0,0,1,4.6,2,13.77,13.77,0,0,1,3.52,3.69,17.07,17.07,0,0,1,2.36,6.55,23.17,23.17,0,0,1-.24,7.57c-1,4.91-2.85,8.72-5.58,11.45a14.46,14.46,0,0,1-10.18,4.3m4.79,25.57a20.3,20.3,0,0,1-3.82,6,16.86,16.86,0,0,1-5.51,3.87A18.5,18.5,0,0,1,471,463a25.31,25.31,0,0,1-9.15-2.12,27,27,0,0,1-7.88-5,20,20,0,0,1-4.72-7,15.83,15.83,0,0,1-1.21-6.66,19.89,19.89,0,0,1,1.57-7,20.93,20.93,0,0,1,3.76-6.06,16.89,16.89,0,0,1,5.51-3.88,18.87,18.87,0,0,1,8.24-1.51,24.74,24.74,0,0,1,9.09,2.12,26,26,0,0,1,8,5,18.49,18.49,0,0,1,4.78,6.9,17,17,0,0,1,1.15,6.73A20.41,20.41,0,0,1,488.65,451.55Zm-8.85-3.64a4.94,4.94,0,0,0-1-5.27q-2.17-2.53-7.45-4.72c-3.45-1.46-6.3-2.12-8.48-1.94a4.86,4.86,0,0,0-3.45,8.18q2.08,2.54,7.45,4.72c3.57,1.52,6.42,2.18,8.6,2A4.79,4.79,0,0,0,479.8,447.91Zm-20.66,28.78L436.36,463.3l6.18-10.54,23,13.57c4.6,2.67,7.33,5.51,8.18,8.48s.12,6.61-2.37,10.85a40.37,40.37,0,0,1-2.36,3.39c-.85,1-1.76,2.06-2.73,3l-8.3-4.91a20.88,20.88,0,0,0,1.64-1.82,16.6,16.6,0,0,0,1.27-1.81c.91-1.58,1.27-2.91,1-3.88S460.72,477.66,459.14,476.69ZM442.6,520.13l-30.53-26.78,7.69-8.66,24.6,4.54-16.42-13.75,6.73-7.51,30.53,26.78-6.54,7.39-28.11-5.27,18.72,15.81Zm-30.41,3.45,5.21-3.93-9.87-7.4Zm-1,22L396,506.14l10.36-7.88,35,24.42-10.05,7.63-6.91-5-8.54,6.48,3.21,7.76Zm-53.86,12.9,9.51-6.36a6.55,6.55,0,0,0,3.88,2.48,9.71,9.71,0,0,0,5.27-.9,5.31,5.31,0,0,0,2.67-2,2.35,2.35,0,0,0,.36-2.31c-.67-1.45-2.73-1.81-6.3-1.21-1.21.24-2.24.43-3,.55-5,.72-8.78.66-11.45-.24a9.81,9.81,0,0,1-5.94-5.7,11.29,11.29,0,0,1,.43-10.66c1.87-3.52,5.21-6.24,10-8.3A19,19,0,0,1,373,522.31a15.58,15.58,0,0,1,8.54,4.55l-8.24,6.72a6.29,6.29,0,0,0-3.51-1.88,8.23,8.23,0,0,0-4.12.67,4.84,4.84,0,0,0-2.3,1.94,2.37,2.37,0,0,0-.24,2.36c.54,1.21,2.54,1.52,6.05.85q1.36-.27,2.19-.36c.36-.06.84-.19,1.45-.25,4.48-.78,7.82-.78,10.12-.18a10.21,10.21,0,0,1,4.12,2.24,12.18,12.18,0,0,1,2.91,4.12,11.24,11.24,0,0,1,1.09,4.85,13.1,13.1,0,0,1-1,4.91,16.85,16.85,0,0,1-4,5.51,20.78,20.78,0,0,1-6.42,4.06,22.39,22.39,0,0,1-12.73,1.94A15.08,15.08,0,0,1,357.3,558.48Zm-16.24,15.75a19,19,0,0,1-7.15.25,17.57,17.57,0,0,1-6.48-2.25,19.79,19.79,0,0,1-6.18-5.87,24.54,24.54,0,0,1-3.57-8.61,24.13,24.13,0,0,1-.55-9.2,18.57,18.57,0,0,1,3-7.76,15.22,15.22,0,0,1,4.79-4.66,19.2,19.2,0,0,1,6.66-2.67,19.57,19.57,0,0,1,7.27-.3,16.1,16.1,0,0,1,6.36,2.3,19.21,19.21,0,0,1,6.18,5.75,27.71,27.71,0,0,1,3.58,8.61,24.58,24.58,0,0,1,.54,9.33,17.22,17.22,0,0,1-2.9,7.69,15.74,15.74,0,0,1-4.85,4.73A19.71,19.71,0,0,1,341.06,574.23ZM338.88,565a4.78,4.78,0,0,0,3.76-3.81c.54-2.06.42-5-.43-8.67s-2-6.3-3.39-7.93a5,5,0,0,0-8.84,1.75c-.55,2.06-.43,5,.48,8.67s2,6.48,3.39,8.12A4.92,4.92,0,0,0,338.88,565ZM282.6,577.45l-1.4-40.05,15.51-.3a27.51,27.51,0,0,1,6.61.54,15.61,15.61,0,0,1,5.15,1.88,17.94,17.94,0,0,1,6.72,7.09,23,23,0,0,1,2.67,10.18,22.19,22.19,0,0,1-1.7,9.39,17.57,17.57,0,0,1-5.27,7.08,18,18,0,0,1-5.75,2.91,29.82,29.82,0,0,1-7.52,1Zm12-9.58,2.79-.06a6.28,6.28,0,0,0,5.51-3,13.61,13.61,0,0,0,1.76-7.93,13.86,13.86,0,0,0-2.24-7.76,6.34,6.34,0,0,0-5.39-2.79l-3.15.06Zm-53.74,1.4a22,22,0,0,1-6.54-3.09,18.44,18.44,0,0,1-7.39-13,24.62,24.62,0,0,1,.85-9.21,23.41,23.41,0,0,1,3.94-8.3,17.52,17.52,0,0,1,6.36-5.39,16,16,0,0,1,6.48-1.88,21.71,21.71,0,0,1,7.21.79,22.93,22.93,0,0,1,6.6,3.09,17.3,17.3,0,0,1,4.61,5,20.13,20.13,0,0,1,2.73,7.93,24.42,24.42,0,0,1-.91,9.15,25.1,25.1,0,0,1-3.88,8.42,18,18,0,0,1-6.3,5.4,16.57,16.57,0,0,1-6.55,1.87A20.25,20.25,0,0,1,240.91,569.27Zm2.43-9.09a4.8,4.8,0,0,0,5.09-1.58c1.51-1.57,2.78-4.18,3.75-7.81s1.22-6.42.73-8.55a5,5,0,0,0-8.66-2.54c-1.52,1.58-2.73,4.18-3.76,7.82s-1.21,6.6-.79,8.66A5,5,0,0,0,243.34,560.18Zm-28.6-37.57-5-2.78-3.81,6.78,5.15,2.91a5.47,5.47,0,0,0,3.63.79,3.41,3.41,0,0,0,2.55-1.76,3.47,3.47,0,0,0,.36-3.21A6.49,6.49,0,0,0,214.74,522.61ZM183.54,541l19.57-34.71,17.33,9.75c4.6,2.67,7.63,5.45,9,8.42s1.09,6.18-.84,9.58a12.58,12.58,0,0,1-4.91,5.09A10.59,10.59,0,0,1,217,540l-2.18,18.78-11.63-6.6,2.18-16.11-3.69-2.13-7.46,13.21Zm-15.45-11.81,24.36-31.57,10.05,7.7L178.21,537ZM140,501.71l29.14-27.38,21.15,22.05-6.79,6.42-12.9-13.51-4.31,4L177,504.38l-6.3,5.94L160,499.23l-5,4.66,13.14,13.64L161.43,524Zm-17.45-26.23,33.93-21.27,6.72,10.42L137.19,481l8.61,13.27-7.88,4.91Zm19.15-51.74L147,435,123,445.61a4.66,4.66,0,0,0-2.55,7,6,6,0,0,0,3.09,3.21,6.16,6.16,0,0,0,4.42-.42l23.63-10.55,4.12,8.85-24.66,11c-4.18,1.87-7.93,2-11.27.48s-6-4.6-8.3-9.33c-2.42-5.21-3.21-9.63-2.24-13.09s3.64-6.24,8-8.18ZM95.21,400.47l39.26-9,4.18,16.6a39.23,39.23,0,0,1,1.15,6.6,13.71,13.71,0,0,1-.49,4.67,12,12,0,0,1-3.33,5.15,12.83,12.83,0,0,1-5.69,2.78,11.92,11.92,0,0,1-10.06-1.75,15.93,15.93,0,0,1-6-9.39l-1.76-7-14.29,3.33Zm25.68,6.73.79,3.27a6.92,6.92,0,0,0,1.94,3.51,3.59,3.59,0,0,0,3.21.67,3.39,3.39,0,0,0,2.55-1.76,4.86,4.86,0,0,0,.18-3.51l-1-3.94Z"/></clipPath><clipPath id="clip-path-9" transform="translate(-53.64 -96.74)"><path class="cls-1" d="M304.59,423.8a24.79,24.79,0,0,1-2.73-1.58l2.25-3.57c.9.55,1.75,1,2.54,1.51,9.15,4.91,20.9,6.37,28.11,5.28a10.37,10.37,0,0,0,4.55-1.58c.36-.24.54-.61.36-.91-.67-1.63-3.58-3.75-9.39-6.36l1.57-3.94c13.82,4.67,23.57,5.88,28.54,4.91h0a4.58,4.58,0,0,0,2.36-1c.12-.12.12-.3,0-.61-.66-1.39-2.91-3.27-6.9-5.45l1.87-3.82c8.91,3.88,25.93,4.19,35.27,2.91,1.09-.18,2.06-.3,2.84-.48-12.9-5.21-27.75-11.39-41.44-17.94-13.39-6.42-25.69-13.14-34-19.69l-45.25,46.41c7,6.49,20,10.3,28.47,10.79a15.41,15.41,0,0,0,5.76-.43c.18-.06.36,0,.36-.06-.42-1-2.06-2.48-5.15-4.42m15.39-58,1.57,1.27c8,6.67,20.72,13.69,34.72,20.36s29.38,13.08,42.59,18.42c1.7.66,2.73,1.51,3.09,2.48.79,1.88-.24,3.27-2.66,4.24a28.81,28.81,0,0,1-5.64,1.27,103.93,103.93,0,0,1-27.57-.48c.25.36.43.73.61,1a4.45,4.45,0,0,1-.61,5,8.07,8.07,0,0,1-4.78,2.36h-.06c-3.82.73-10,.42-18.18-1.45a9.09,9.09,0,0,1,.61,1.09h-.06a4.44,4.44,0,0,1-1.58,5.87,15,15,0,0,1-6.54,2.43c-5.57.84-13.63.3-21.45-2,.49,2.18-.66,3.69-3.09,4.6a19.34,19.34,0,0,1-7.51.73c-9.88-.61-25.63-5.45-32.9-13.69l-1.27-1.52,1.33-1.33,48-49.26Z"/></clipPath><clipPath id="clip-path-10" transform="translate(-53.64 -96.74)"><path class="cls-1" d="M265.15,388.66c.61.85,1.21,1.64,1.88,2.42l3.33-2.48c-.61-.85-1.15-1.58-1.7-2.3-5.87-8.3-8.42-19.45-8-26.48a9.65,9.65,0,0,1,1.09-4.54c.24-.43.54-.61.91-.49,1.63.55,4.05,3.09,7.27,8.42l3.75-1.87c-6-12.85-8.12-22.06-7.63-27h0a4.61,4.61,0,0,1,.72-2.43c.07-.06.25-.06.55,0,1.51.49,3.57,2.43,6.12,6.06l3.63-2.18c-4.72-8.18-6.66-24.48-6.3-33.63.06-1,.12-1.93.25-2.78,6.42,11.93,14.05,25.56,21.93,38.05,7.69,12.23,15.63,23.38,23,30.71l-42,48.17c-7.15-6-12.23-18.18-13.57-26.3a16,16,0,0,1-.12-5.57c.06-.18,0-.36,0-.3,1.09.3,2.67,1.69,4.91,4.48m56.59-20.72-1.4-1.33c-7.45-7-15.75-18.54-23.75-31.33s-15.93-27-22.53-39.07v-.06a5,5,0,0,0-2.79-2.67c-1.94-.61-3.27.55-4,3a27.81,27.81,0,0,0-.73,5.51,96.23,96.23,0,0,0,3.15,26.48,4.21,4.21,0,0,0-1.09-.49,4.52,4.52,0,0,0-4.9,1.09,7.61,7.61,0,0,0-1.88,4.85c-.37,3.76.54,9.7,3.21,17.39a7,7,0,0,0-1.15-.49,4.68,4.68,0,0,0-5.76,2.12,13.92,13.92,0,0,0-1.7,6.55c-.36,5.45,1,13.15,4,20.42-2.18-.25-3.57,1-4.24,3.45a17.2,17.2,0,0,0,0,7.27c1.58,9.45,7.94,24.11,16.91,30.23l1.57,1.09,1.21-1.39,44.59-51.14Z"/></clipPath><clipPath id="clip-path-11" transform="translate(-53.64 -96.74)"><path class="cls-1" d="M274.3,373.57a12.42,12.42,0,0,0,3.51,9.09,23,23,0,0,0,7.15,4.73l2.18-3.27A20.53,20.53,0,0,1,280.9,380a9.63,9.63,0,0,1-2.66-7Z"/></clipPath><clipPath id="clip-path-12" transform="translate(-53.64 -96.74)"><path class="cls-1" d="M284.54,352a24.48,24.48,0,0,0,3.39,12.54,23.92,23.92,0,0,0,9.39,8.72l2.36-3.21a20.86,20.86,0,0,1-8.3-7.63,22.2,22.2,0,0,1-3-11.15Z"/></clipPath><clipPath id="clip-path-13" transform="translate(-53.64 -96.74)"><path class="cls-2" d="M201.47,487.29l-.12-.12.12-.12L326,355.4c-5.88-11.15-9.88-22.66-8.24-35.69s8.84-27.44,25.32-44.53l-5.33-5.09-.24-.24.36-.06L358.33,265l.3-.06-.06.31-3.39,21.08-.06.3-.24-.24L349.24,281a78.24,78.24,0,0,0-19.57,35.68c-3.39,14.06-1.94,26.42,3.27,31.57l41.75-43-5.27-5-.18-.19.24-.12,27.08-11.15.42-.18-.18.43-10.36,27-.06.24-.24-.18-5.21-5.27-42.71,44c7.27,6.79,21.87,8.73,37,6.24,14.54-2.36,29.69-8.72,39.44-18.66l-5.15-4.9-.24-.25.31-.06,20.29-5,.3-.07-.06.25-3.75,20.78-.06.3-.25-.24-5.81-5.51c-13.69,12.11-28.29,19.75-43.5,22.05-14.48,2.3-29.57-.3-44.9-8.42L207.11,493.59l-.18.19-.12-.19Z"/></clipPath><clipPath id="clip-path-14" transform="translate(-53.64 -96.74)"><path class="cls-3" d="M406.78,358.05a37.1,37.1,0,0,1,6.62,19c-.06,5.15-2.06,9.39-5.87,11.51s-8.55,1.51-13.09-1.15A31.15,31.15,0,0,1,383.65,376a29.7,29.7,0,0,1-4.18-15c.13-5.15,2.06-9.39,5.94-11.51a11.11,11.11,0,0,1,7.94-.91,19.54,19.54,0,0,1,7.87,3.88l-7.83,3.72c-1.31-1-2.63-1.9-4.65-.75-1.57.85-2.42,3-2.48,5.82a23.08,23.08,0,0,0,3.33,11.51,22.7,22.7,0,0,0,8.24,8.78c2.43,1.46,4.73,1.88,6.3,1s2.43-3,2.49-5.81a23.59,23.59,0,0,0-3.27-11.52,24.46,24.46,0,0,0-2.5-3.64Z"/></clipPath><clipPath id="clip-path-15" transform="translate(-53.64 -96.74)"><path class="cls-1" d="M478.89,347.47l-5.21.6L471.07,332l4.85-.73,3.09,3.15A36.7,36.7,0,0,0,481.8,337a14.27,14.27,0,0,0,3.21,2.36,3.33,3.33,0,0,0,2.12.36,2.22,2.22,0,0,0,1.51-.85,2.28,2.28,0,0,0,.37-1.57c-.25-1.52-1.64-2.24-4.06-2l.18-5.51a8.15,8.15,0,0,1,8.66,7.21,8.54,8.54,0,0,1-.91,5.87,6.08,6.08,0,0,1-4.54,3,6.81,6.81,0,0,1-4.06-.54c-1.39-.61-3.58-2.61-6.73-6Z"/></clipPath></defs><title>pa</title><path class="cls-4" d="M132.29,373.27l-4.18-1.21,1.28-4.73-9.33-2.66a22.82,22.82,0,0,1,.36,2.48,11.94,11.94,0,0,1-.06,2.12l-4.3-1.21a11.73,11.73,0,0,0-.3-3.63,6.85,6.85,0,0,0-1.34-2.73l1.09-4,15.33,4.36,1.27-4.6,4.18,1.21Zm-1.75-27.63a3.92,3.92,0,0,1,.91,1.94,6.44,6.44,0,0,1-.12,2.37,5.8,5.8,0,0,1-7.58,4.06,7.42,7.42,0,0,1-2.3-1.1,5.82,5.82,0,0,1-1.7-1.93,6.85,6.85,0,0,1-1-2.85,8.13,8.13,0,0,1,4.37-8.3c2.12-1,4.66-1,7.69-.12a12.3,12.3,0,0,1,6.91,4.24,7.26,7.26,0,0,1,1.21,6.54,6.38,6.38,0,0,1-6.85,5.21l.73-5a3.14,3.14,0,0,0,1.39-.3,1.8,1.8,0,0,0,.67-1,2,2,0,0,0-.73-2.06A11.39,11.39,0,0,0,130.54,345.64Zm-7.51.25a1.88,1.88,0,0,0,.3,1.63,2.86,2.86,0,0,0,1.51,1.09,2.67,2.67,0,0,0,1.82-.12,1.68,1.68,0,0,0,1-1.27,2.19,2.19,0,0,0-.18-1.76,2.52,2.52,0,0,0-1.58-1.09,2.37,2.37,0,0,0-1.81.18A2.18,2.18,0,0,0,123,345.89Zm12.11-17a3.8,3.8,0,0,1,.91,1.94,5.32,5.32,0,0,1-.12,2.36,5.75,5.75,0,0,1-2.85,3.7,6,6,0,0,1-4.72.42,8.91,8.91,0,0,1-2.31-1.15,5.72,5.72,0,0,1-1.69-1.94,6.5,6.5,0,0,1-1-2.84,7.69,7.69,0,0,1,.18-3.09,7.56,7.56,0,0,1,4.18-5.21c2.12-1,4.67-1,7.7-.13s5.45,2.31,6.9,4.31a7.27,7.27,0,0,1,1.27,6.48,7,7,0,0,1-2.48,3.94,6.61,6.61,0,0,1-4.42,1.27l.72-5a3.22,3.22,0,0,0,1.4-.3,1.88,1.88,0,0,0,.66-1,2,2,0,0,0-.72-2.06A11.25,11.25,0,0,0,135.14,328.86Zm-7.51.24a2,2,0,0,0,.3,1.64,3,3,0,0,0,1.52,1.09,2.68,2.68,0,0,0,1.82-.12,1.7,1.7,0,0,0,1-1.27,2.11,2.11,0,0,0-.18-1.76,2.31,2.31,0,0,0-1.57-1.09,2.4,2.4,0,0,0-1.82.18A2.19,2.19,0,0,0,127.63,329.1Zm18.54-6.18-4.24-1.21,1.27-4.66-9.33-2.67a19.16,19.16,0,0,1,.36,2.49,8.3,8.3,0,0,1-.06,2.12l-4.3-1.28a11.81,11.81,0,0,0-.24-3.63,7.36,7.36,0,0,0-1.39-2.73l1.09-4,15.32,4.37,1.28-4.61,4.24,1.21Z" transform="translate(-53.64 -96.74)"/><g class="cls-5"><rect class="cls-6" x="107.44" y="303.94" width="49.71" height="72.5" transform="translate(-126.75 -58.28) rotate(-12.99)"/></g><path class="cls-4" d="M474.11,321.85c.12.84.79,1.33,2,1.45a19,19,0,0,0,4.67-.24,17,17,0,0,0,5.15-1.46,1.79,1.79,0,0,0,1-1.81c-.13-.85-.73-1.34-1.88-1.46a18,18,0,0,0-4.55.24,19.21,19.21,0,0,0-5.21,1.34,1.77,1.77,0,0,0-1.15,1.94m-4.48.6a7,7,0,0,1,2.06-6.48,13,13,0,0,1,7.51-3.51c3.33-.49,6.12-.19,8.3,1a7.64,7.64,0,0,1,3.88,5.63,7.09,7.09,0,0,1-2.12,6.6,13.74,13.74,0,0,1-7.57,3.4,12.37,12.37,0,0,1-8.18-1A7.5,7.5,0,0,1,469.63,322.45Z" transform="translate(-53.64 -96.74)"/><g class="cls-7"><rect class="cls-6" x="467.51" y="309.66" width="26" height="22.32" transform="translate(-113.48 19.52) rotate(-12.99)"/></g><path class="cls-4" d="M473.53,311.4l-5.21.61L465.71,296l4.85-.73,3.09,3.15a34.63,34.63,0,0,0,2.79,2.55,14.27,14.27,0,0,0,3.21,2.36,3.27,3.27,0,0,0,2.12.36,2.07,2.07,0,0,0,1.88-2.42c-.25-1.51-1.64-2.24-4.06-2l.18-5.51a8.15,8.15,0,0,1,8.66,7.21,8.52,8.52,0,0,1-.91,5.88,6.1,6.1,0,0,1-4.54,3,6.73,6.73,0,0,1-4.06-.54c-1.39-.61-3.57-2.61-6.72-6Z" transform="translate(-53.64 -96.74)"/><g class="cls-8"><rect class="cls-6" x="463.95" y="291.35" width="26.61" height="23.02" transform="translate(-109.52 18.33) rotate(-12.99)"/></g><path class="cls-4" d="M474.2,350.77l4.31-.63.8,4.83,9.59-1.44a22.85,22.85,0,0,1-1.36-2.11,12.46,12.46,0,0,1-.82-1.95l4.42-.68a11.26,11.26,0,0,0,1.78,3.18,6.76,6.76,0,0,0,2.34,1.93l.66,4.1-15.76,2.37.75,4.72-4.31.63Z" transform="translate(-53.64 -96.74)"/><g class="cls-9"><rect class="cls-6" x="472.58" y="346.57" width="24.97" height="21.38" transform="translate(-121.55 21.47) rotate(-12.99)"/></g><path class="cls-4" d="M164.21,297.66,132.1,271.37l12.67-15.27c3.39-4.12,6.72-6.54,10-7.33s6.42.12,9.57,2.66a12.68,12.68,0,0,1,4.31,5.94,10.13,10.13,0,0,1-.13,6.67l18.67,5.81-8.55,10.36-16-5.33-2.73,3.27,12.18,10ZM150.52,263l-3.69,4.42,6.3,5.15,3.75-4.55a5.28,5.28,0,0,0,1.4-3.45,3.57,3.57,0,0,0-1.4-2.91,3.65,3.65,0,0,0-3.15-1A6.32,6.32,0,0,0,150.52,263Zm39.56,2.78-24.23-33.5L191,214.6l5.7,7.75L181.24,233.2l3.57,4.9,12.67-8.84,5.27,7.21-12.67,8.9,4.12,5.7,15.57-11,5.7,7.82Zm30-48.1,3-1.46a6,6,0,0,0,3-2.66,3.57,3.57,0,0,0-.06-3.33,3.75,3.75,0,0,0-2.42-2.13,4.93,4.93,0,0,0-3.58.55l-3.69,1.82Zm-.48,26.78-18.72-36.78,15.69-7.63a36.41,36.41,0,0,1,6.3-2.55,14,14,0,0,1,4.79-.54,12.83,12.83,0,0,1,6,2.18,13.9,13.9,0,0,1,4.24,5,12,12,0,0,1,.66,10.24c-1.33,3.39-4,6-7.93,7.93l-6.55,3.21L231,239ZM246.13,188l12.42-2.42,5.63,26.23a5.87,5.87,0,0,0,10.3,2,5.71,5.71,0,0,0,.54-4.48l-5.51-25.87,9.7-1.88,5.81,27c1,4.54.3,8.24-1.94,11.15s-5.93,4.9-11.08,5.93c-5.82,1.1-10.36.79-13.64-1s-5.45-5.08-6.54-9.93Zm12.05-6.54L261.39,170l8.18-1.58-7,12.24Zm35.69,39.62,2.84-40.77,20,1.69a27,27,0,0,1,6.12,1.09,10.57,10.57,0,0,1,3.63,2.37,8.42,8.42,0,0,1,2.36,3.69,11.29,11.29,0,0,1,.67,4.55,9.29,9.29,0,0,1-2.24,5.75,9.08,9.08,0,0,1-5.39,2.79,10.42,10.42,0,0,1,5.69,3.81,9.45,9.45,0,0,1,1.58,6.61c-.24,3.76-1.64,6.42-4.24,8.18s-6.24,2.36-11,1.94Zm12.36-8,6.18.55a4.8,4.8,0,0,0,3.33-.73,3.23,3.23,0,0,0,1.33-2.6,3.7,3.7,0,0,0-1-2.91,5.35,5.35,0,0,0-3.21-1.21l-6.18-.55Zm1.15-16.17,6,.48a4.2,4.2,0,0,0,3-.6,3.08,3.08,0,0,0,1.22-2.43,3.41,3.41,0,0,0-.85-2.6,4.56,4.56,0,0,0-2.91-1.15l-6-.49Zm25.93,27.56,10-39.5,12.3,3.21-7.69,30.36,15.69,4.12-2.36,9.2Zm30.41,9.33,16.78-37.14,11.76,5.4L375.48,239.2ZM415,234a10.58,10.58,0,0,0,2.06-5.51,4.3,4.3,0,0,0-1.82-3.82,5,5,0,0,0-5.57-.24c-1.94,1-4.12,3.33-6.49,6.73-2.18,3.21-3.39,5.87-3.63,7.87a4.79,4.79,0,0,0,2.24,4.85,4.57,4.57,0,0,0,4.06.73,9.64,9.64,0,0,0,4.36-3.27l9.21,7.27c-3.21,3.69-6.91,5.87-11,6.42s-8.05-.55-12.11-3.27c-4.79-3.28-7.52-7.46-8.3-12.48s.72-10.18,4.3-15.39c3.88-5.58,8.24-9,13.21-10.18s9.93-.12,14.84,3.21c4.12,2.85,6.66,6.3,7.51,10.42s-.06,8.42-2.66,12.91Zm-3.64,27.81,38.17-19.44,9.51,9.57L439,289.6l-9.27-9.27,4.12-7.45-7.82-7.94-7.51,4.12ZM434,260.46l4.73,4.79,6.12-10.67Z" transform="translate(-53.64 -96.74)"/><g class="cls-10"><rect class="cls-6" x="121.75" y="133.27" width="347.62" height="199.49" transform="translate(-98.47 -24.31) rotate(-12.99)"/></g><path class="cls-4" d="M318,413a14.17,14.17,0,0,1-10.12-3,23.48,23.48,0,0,1-5.63-7l3.51-2.36a21.22,21.22,0,0,0,4.85,6.06,11.2,11.2,0,0,0,7.81,2.36Z" transform="translate(-53.64 -96.74)"/><g class="cls-11"><rect class="cls-6" x="301.02" y="399.06" width="18.6" height="15.92" transform="translate(-137.22 -16.54) rotate(-12.99)"/></g><path class="cls-4" d="M341.06,401.75A30.34,30.34,0,0,1,327.13,399a25.88,25.88,0,0,1-10.12-9l3.39-2.54a22.29,22.29,0,0,0,8.85,7.87,26.07,26.07,0,0,0,12.36,2.43Z" transform="translate(-53.64 -96.74)"/><g class="cls-12"><rect class="cls-6" x="315.71" y="384.93" width="27.2" height="19.52" transform="translate(-133.96 -12.59) rotate(-12.99)"/></g><path class="cls-4" d="M483.86,426l.06-11.45a6.3,6.3,0,0,0,4.25-1.7,9.55,9.55,0,0,0,2.18-4.78,6.08,6.08,0,0,0-.12-3.33,2.5,2.5,0,0,0-1.76-1.64c-1.58-.3-3,1.15-4.49,4.36a29,29,0,0,1-1.27,2.73c-2.12,4.48-4.36,7.51-6.6,9.15a9.37,9.37,0,0,1-8,1.51,11.86,11.86,0,0,1-8.6-6.6c-1.82-3.58-2.24-7.94-1.27-13a17.57,17.57,0,0,1,4.48-9.15,14.67,14.67,0,0,1,8.54-4.3l1,10.66a6,6,0,0,0-3.51,1.7,7,7,0,0,0-1.76,3.76,4.62,4.62,0,0,0,.3,3,2.48,2.48,0,0,0,1.82,1.57c1.27.3,2.67-1.21,4.06-4.42.42-.85.73-1.52,1-2a14.5,14.5,0,0,1,.61-1.33c1.87-4.06,3.69-6.79,5.45-8.3a10.17,10.17,0,0,1,4.24-2.06,12.27,12.27,0,0,1,5,.06,12.48,12.48,0,0,1,4.6,2,13.77,13.77,0,0,1,3.52,3.69,17.07,17.07,0,0,1,2.36,6.55,23.17,23.17,0,0,1-.24,7.57c-1,4.91-2.85,8.72-5.58,11.45a14.46,14.46,0,0,1-10.18,4.3m4.79,25.57a20.3,20.3,0,0,1-3.82,6,16.86,16.86,0,0,1-5.51,3.87A18.5,18.5,0,0,1,471,463a25.31,25.31,0,0,1-9.15-2.12,27,27,0,0,1-7.88-5,20,20,0,0,1-4.72-7,15.83,15.83,0,0,1-1.21-6.66,19.89,19.89,0,0,1,1.57-7,20.93,20.93,0,0,1,3.76-6.06,16.89,16.89,0,0,1,5.51-3.88,18.87,18.87,0,0,1,8.24-1.51,24.74,24.74,0,0,1,9.09,2.12,26,26,0,0,1,8,5,18.49,18.49,0,0,1,4.78,6.9,17,17,0,0,1,1.15,6.73A20.41,20.41,0,0,1,488.65,451.55Zm-8.85-3.64a4.94,4.94,0,0,0-1-5.27q-2.17-2.53-7.45-4.72c-3.45-1.46-6.3-2.12-8.48-1.94a4.86,4.86,0,0,0-3.45,8.18q2.08,2.54,7.45,4.72c3.57,1.52,6.42,2.18,8.6,2A4.79,4.79,0,0,0,479.8,447.91Zm-20.66,28.78L436.36,463.3l6.18-10.54,23,13.57c4.6,2.67,7.33,5.51,8.18,8.48s.12,6.61-2.37,10.85a40.37,40.37,0,0,1-2.36,3.39c-.85,1-1.76,2.06-2.73,3l-8.3-4.91a20.88,20.88,0,0,0,1.64-1.82,16.6,16.6,0,0,0,1.27-1.81c.91-1.58,1.27-2.91,1-3.88S460.72,477.66,459.14,476.69ZM442.6,520.13l-30.53-26.78,7.69-8.66,24.6,4.54-16.42-13.75,6.73-7.51,30.53,26.78-6.54,7.39-28.11-5.27,18.72,15.81Zm-30.41,3.45,5.21-3.93-9.87-7.4Zm-1,22L396,506.14l10.36-7.88,35,24.42-10.05,7.63-6.91-5-8.54,6.48,3.21,7.76Zm-53.86,12.9,9.51-6.36a6.55,6.55,0,0,0,3.88,2.48,9.71,9.71,0,0,0,5.27-.9,5.31,5.31,0,0,0,2.67-2,2.35,2.35,0,0,0,.36-2.31c-.67-1.45-2.73-1.81-6.3-1.21-1.21.24-2.24.43-3,.55-5,.72-8.78.66-11.45-.24a9.81,9.81,0,0,1-5.94-5.7,11.29,11.29,0,0,1,.43-10.66c1.87-3.52,5.21-6.24,10-8.3A19,19,0,0,1,373,522.31a15.58,15.58,0,0,1,8.54,4.55l-8.24,6.72a6.29,6.29,0,0,0-3.51-1.88,8.23,8.23,0,0,0-4.12.67,4.84,4.84,0,0,0-2.3,1.94,2.37,2.37,0,0,0-.24,2.36c.54,1.21,2.54,1.52,6.05.85q1.36-.27,2.19-.36c.36-.06.84-.19,1.45-.25,4.48-.78,7.82-.78,10.12-.18a10.21,10.21,0,0,1,4.12,2.24,12.18,12.18,0,0,1,2.91,4.12,11.24,11.24,0,0,1,1.09,4.85,13.1,13.1,0,0,1-1,4.91,16.85,16.85,0,0,1-4,5.51,20.78,20.78,0,0,1-6.42,4.06,22.39,22.39,0,0,1-12.73,1.94A15.08,15.08,0,0,1,357.3,558.48Zm-16.24,15.75a19,19,0,0,1-7.15.25,17.57,17.57,0,0,1-6.48-2.25,19.79,19.79,0,0,1-6.18-5.87,24.54,24.54,0,0,1-3.57-8.61,24.13,24.13,0,0,1-.55-9.2,18.57,18.57,0,0,1,3-7.76,15.22,15.22,0,0,1,4.79-4.66,19.2,19.2,0,0,1,6.66-2.67,19.57,19.57,0,0,1,7.27-.3,16.1,16.1,0,0,1,6.36,2.3,19.21,19.21,0,0,1,6.18,5.75,27.71,27.71,0,0,1,3.58,8.61,24.58,24.58,0,0,1,.54,9.33,17.22,17.22,0,0,1-2.9,7.69,15.74,15.74,0,0,1-4.85,4.73A19.71,19.71,0,0,1,341.06,574.23ZM338.88,565a4.78,4.78,0,0,0,3.76-3.81c.54-2.06.42-5-.43-8.67s-2-6.3-3.39-7.93a5,5,0,0,0-8.84,1.75c-.55,2.06-.43,5,.48,8.67s2,6.48,3.39,8.12A4.92,4.92,0,0,0,338.88,565ZM282.6,577.45l-1.4-40.05,15.51-.3a27.51,27.51,0,0,1,6.61.54,15.61,15.61,0,0,1,5.15,1.88,17.94,17.94,0,0,1,6.72,7.09,23,23,0,0,1,2.67,10.18,22.19,22.19,0,0,1-1.7,9.39,17.57,17.57,0,0,1-5.27,7.08,18,18,0,0,1-5.75,2.91,29.82,29.82,0,0,1-7.52,1Zm12-9.58,2.79-.06a6.28,6.28,0,0,0,5.51-3,13.61,13.61,0,0,0,1.76-7.93,13.86,13.86,0,0,0-2.24-7.76,6.34,6.34,0,0,0-5.39-2.79l-3.15.06Zm-53.74,1.4a22,22,0,0,1-6.54-3.09,18.44,18.44,0,0,1-7.39-13,24.62,24.62,0,0,1,.85-9.21,23.41,23.41,0,0,1,3.94-8.3,17.52,17.52,0,0,1,6.36-5.39,16,16,0,0,1,6.48-1.88,21.71,21.71,0,0,1,7.21.79,22.93,22.93,0,0,1,6.6,3.09,17.3,17.3,0,0,1,4.61,5,20.13,20.13,0,0,1,2.73,7.93,24.42,24.42,0,0,1-.91,9.15,25.1,25.1,0,0,1-3.88,8.42,18,18,0,0,1-6.3,5.4,16.57,16.57,0,0,1-6.55,1.87A20.25,20.25,0,0,1,240.91,569.27Zm2.43-9.09a4.8,4.8,0,0,0,5.09-1.58c1.51-1.57,2.78-4.18,3.75-7.81s1.22-6.42.73-8.55a5,5,0,0,0-8.66-2.54c-1.52,1.58-2.73,4.18-3.76,7.82s-1.21,6.6-.79,8.66A5,5,0,0,0,243.34,560.18Zm-28.6-37.57-5-2.78-3.81,6.78,5.15,2.91a5.47,5.47,0,0,0,3.63.79,3.41,3.41,0,0,0,2.55-1.76,3.47,3.47,0,0,0,.36-3.21A6.49,6.49,0,0,0,214.74,522.61ZM183.54,541l19.57-34.71,17.33,9.75c4.6,2.67,7.63,5.45,9,8.42s1.09,6.18-.84,9.58a12.58,12.58,0,0,1-4.91,5.09A10.59,10.59,0,0,1,217,540l-2.18,18.78-11.63-6.6,2.18-16.11-3.69-2.13-7.46,13.21Zm-15.45-11.81,24.36-31.57,10.05,7.7L178.21,537ZM140,501.71l29.14-27.38,21.15,22.05-6.79,6.42-12.9-13.51-4.31,4L177,504.38l-6.3,5.94L160,499.23l-5,4.66,13.14,13.64L161.43,524Zm-17.45-26.23,33.93-21.27,6.72,10.42L137.19,481l8.61,13.27-7.88,4.91Zm19.15-51.74L147,435,123,445.61a4.66,4.66,0,0,0-2.55,7,6,6,0,0,0,3.09,3.21,6.16,6.16,0,0,0,4.42-.42l23.63-10.55,4.12,8.85-24.66,11c-4.18,1.87-7.93,2-11.27.48s-6-4.6-8.3-9.33c-2.42-5.21-3.21-9.63-2.24-13.09s3.64-6.24,8-8.18ZM95.21,400.47l39.26-9,4.18,16.6a39.23,39.23,0,0,1,1.15,6.6,13.71,13.71,0,0,1-.49,4.67,12,12,0,0,1-3.33,5.15,12.83,12.83,0,0,1-5.69,2.78,11.92,11.92,0,0,1-10.06-1.75,15.93,15.93,0,0,1-6-9.39l-1.76-7-14.29,3.33Zm25.68,6.73.79,3.27a6.92,6.92,0,0,0,1.94,3.51,3.59,3.59,0,0,0,3.21.67,3.39,3.39,0,0,0,2.55-1.76,4.86,4.86,0,0,0,.18-3.51l-1-3.94Z" transform="translate(-53.64 -96.74)"/><g class="cls-13"><rect class="cls-6" x="79.07" y="344.64" width="437.3" height="275.91" transform="translate(-154.54 -17.44) rotate(-12.99)"/></g><path class="cls-4" d="M304.59,423.8a24.79,24.79,0,0,1-2.73-1.58l2.25-3.57c.9.55,1.75,1,2.54,1.51,9.15,4.91,20.9,6.37,28.11,5.28a10.37,10.37,0,0,0,4.55-1.58c.36-.24.54-.61.36-.91-.67-1.63-3.58-3.75-9.39-6.36l1.57-3.94c13.82,4.67,23.57,5.88,28.54,4.91h0a4.58,4.58,0,0,0,2.36-1c.12-.12.12-.3,0-.61-.66-1.39-2.91-3.27-6.9-5.45l1.87-3.82c8.91,3.88,25.93,4.19,35.27,2.91,1.09-.18,2.06-.3,2.84-.48-12.9-5.21-27.75-11.39-41.44-17.94-13.39-6.42-25.69-13.14-34-19.69l-45.25,46.41c7,6.49,20,10.3,28.47,10.79a15.41,15.41,0,0,0,5.76-.43c.18-.06.36,0,.36-.06-.42-1-2.06-2.48-5.15-4.42m15.39-58,1.57,1.27c8,6.67,20.72,13.69,34.72,20.36s29.38,13.08,42.59,18.42c1.7.66,2.73,1.51,3.09,2.48.79,1.88-.24,3.27-2.66,4.24a28.81,28.81,0,0,1-5.64,1.27,103.93,103.93,0,0,1-27.57-.48c.25.36.43.73.61,1a4.45,4.45,0,0,1-.61,5,8.07,8.07,0,0,1-4.78,2.36h-.06c-3.82.73-10,.42-18.18-1.45a9.09,9.09,0,0,1,.61,1.09h-.06a4.44,4.44,0,0,1-1.58,5.87,15,15,0,0,1-6.54,2.43c-5.57.84-13.63.3-21.45-2,.49,2.18-.66,3.69-3.09,4.6a19.34,19.34,0,0,1-7.51.73c-9.88-.61-25.63-5.45-32.9-13.69l-1.27-1.52,1.33-1.33,48-49.26Z" transform="translate(-53.64 -96.74)"/><g class="cls-14"><rect class="cls-6" x="263.4" y="351.62" width="145.2" height="95.66" transform="translate(-134.86 -10.96) rotate(-12.99)"/></g><path class="cls-4" d="M265.15,388.66c.61.85,1.21,1.64,1.88,2.42l3.33-2.48c-.61-.85-1.15-1.58-1.7-2.3-5.87-8.3-8.42-19.45-8-26.48a9.65,9.65,0,0,1,1.09-4.54c.24-.43.54-.61.91-.49,1.63.55,4.05,3.09,7.27,8.42l3.75-1.87c-6-12.85-8.12-22.06-7.63-27h0a4.61,4.61,0,0,1,.72-2.43c.07-.06.25-.06.55,0,1.51.49,3.57,2.43,6.12,6.06l3.63-2.18c-4.72-8.18-6.66-24.48-6.3-33.63.06-1,.12-1.93.25-2.78,6.42,11.93,14.05,25.56,21.93,38.05,7.69,12.23,15.63,23.38,23,30.71l-42,48.17c-7.15-6-12.23-18.18-13.57-26.3a16,16,0,0,1-.12-5.57c.06-.18,0-.36,0-.3,1.09.3,2.67,1.69,4.91,4.48m56.59-20.72-1.4-1.33c-7.45-7-15.75-18.54-23.75-31.33s-15.93-27-22.53-39.07v-.06a5,5,0,0,0-2.79-2.67c-1.94-.61-3.27.55-4,3a27.81,27.81,0,0,0-.73,5.51,96.23,96.23,0,0,0,3.15,26.48,4.21,4.21,0,0,0-1.09-.49,4.52,4.52,0,0,0-4.9,1.09,7.61,7.61,0,0,0-1.88,4.85c-.37,3.76.54,9.7,3.21,17.39a7,7,0,0,0-1.15-.49,4.68,4.68,0,0,0-5.76,2.12,13.92,13.92,0,0,0-1.7,6.55c-.36,5.45,1,13.15,4,20.42-2.18-.25-3.57,1-4.24,3.45a17.2,17.2,0,0,0,0,7.27c1.58,9.45,7.94,24.11,16.91,30.23l1.57,1.09,1.21-1.39,44.59-51.14Z" transform="translate(-53.64 -96.74)"/><g class="cls-15"><rect class="cls-6" x="241.97" y="287.1" width="93.44" height="140.66" transform="translate(-126.62 -22.67) rotate(-12.99)"/></g><path class="cls-4" d="M274.3,373.57a12.42,12.42,0,0,0,3.51,9.09,23,23,0,0,0,7.15,4.73l2.18-3.27A20.53,20.53,0,0,1,280.9,380a9.63,9.63,0,0,1-2.66-7Z" transform="translate(-53.64 -96.74)"/><g class="cls-16"><rect class="cls-6" x="272.78" y="371.7" width="15.82" height="16.95" transform="translate(-131.94 -23.89) rotate(-12.99)"/></g><path class="cls-4" d="M284.54,352a24.48,24.48,0,0,0,3.39,12.54,23.92,23.92,0,0,0,9.39,8.72l2.36-3.21a20.86,20.86,0,0,1-8.3-7.63,22.2,22.2,0,0,1-3-11.15Z" transform="translate(-53.64 -96.74)"/><g class="cls-17"><rect class="cls-6" x="282.26" y="349.86" width="19.7" height="24.84" transform="translate(-127.62 -21.78) rotate(-12.99)"/></g><path class="cls-18" d="M201.47,487.29l-.12-.12.12-.12L326,355.4c-5.88-11.15-9.88-22.66-8.24-35.69s8.84-27.44,25.32-44.53l-5.33-5.09-.24-.24.36-.06L358.33,265l.3-.06-.06.31-3.39,21.08-.06.3-.24-.24L349.24,281a78.24,78.24,0,0,0-19.57,35.68c-3.39,14.06-1.94,26.42,3.27,31.57l41.75-43-5.27-5-.18-.19.24-.12,27.08-11.15.42-.18-.18.43-10.36,27-.06.24-.24-.18-5.21-5.27-42.71,44c7.27,6.79,21.87,8.73,37,6.24,14.54-2.36,29.69-8.72,39.44-18.66l-5.15-4.9-.24-.25.31-.06,20.29-5,.3-.07-.06.25-3.75,20.78-.06.3-.25-.24-5.81-5.51c-13.69,12.11-28.29,19.75-43.5,22.05-14.48,2.3-29.57-.3-44.9-8.42L207.11,493.59l-.18.19-.12-.19Z" transform="translate(-53.64 -96.74)"/><g class="cls-19"><rect class="cls-20" x="178.56" y="242.15" width="274.43" height="274.43" transform="translate(-130.86 -16.02) rotate(-12.99)"/></g><path class="cls-21" d="M406.78,358.05a37.1,37.1,0,0,1,6.62,19c-.06,5.15-2.06,9.39-5.87,11.51s-8.55,1.51-13.09-1.15A31.15,31.15,0,0,1,383.65,376a29.7,29.7,0,0,1-4.18-15c.13-5.15,2.06-9.39,5.94-11.51a11.11,11.11,0,0,1,7.94-.91,19.54,19.54,0,0,1,7.87,3.88l-7.83,3.72c-1.31-1-2.63-1.9-4.65-.75-1.57.85-2.42,3-2.48,5.82a23.08,23.08,0,0,0,3.33,11.51,22.7,22.7,0,0,0,8.24,8.78c2.43,1.46,4.73,1.88,6.3,1s2.43-3,2.49-5.81a23.59,23.59,0,0,0-3.27-11.52,24.46,24.46,0,0,0-2.5-3.64Z" transform="translate(-53.64 -96.74)"/><g class="cls-22"><rect class="cls-23" x="375" y="344.65" width="42.89" height="49.24" transform="translate(-126.53 1.86) rotate(-12.99)"/></g><path class="cls-4" d="M478.89,347.47l-5.21.6L471.07,332l4.85-.73,3.09,3.15A36.7,36.7,0,0,0,481.8,337a14.27,14.27,0,0,0,3.21,2.36,3.33,3.33,0,0,0,2.12.36,2.22,2.22,0,0,0,1.51-.85,2.28,2.28,0,0,0,.37-1.57c-.25-1.52-1.64-2.24-4.06-2l.18-5.51a8.15,8.15,0,0,1,8.66,7.21,8.54,8.54,0,0,1-.91,5.87,6.08,6.08,0,0,1-4.54,3,6.81,6.81,0,0,1-4.06-.54c-1.39-.61-3.58-2.61-6.73-6Z" transform="translate(-53.64 -96.74)"/><g class="cls-24"><rect class="cls-6" x="469.31" y="327.42" width="26.61" height="23.02" transform="translate(-117.5 20.46) rotate(-12.99)"/></g></svg>